<svg width="24" height="24" viewBox="0 0 24 24" fill="none" xmlns="http://www.w3.org/2000/svg">
<rect width="24" height="24" fill="#E5E5E5"/>
<g id="components">
<rect width="2078" height="3798" transform="translate(-1115 -988)" fill="#020618"/>
<g id="about menu icons">
<rect x="-19.5" y="-151.5" width="63" height="283" rx="4.5" stroke="#9747FF" stroke-dasharray="10 5"/>
<g id="type=personal info, state=selected">
<g id="icon professional info" clip-path="url(#clip0_42_262)">
<path id="Vector" d="M5 20H19V22H5V20ZM12 18C9.87827 18 7.84344 17.1571 6.34315 15.6569C4.84285 14.1566 4 12.1217 4 10C4 7.87827 4.84285 5.84344 6.34315 4.34315C7.84344 2.84285 9.87827 2 12 2C14.1217 2 16.1566 2.84285 17.6569 4.34315C19.1571 5.84344 20 7.87827 20 10C20 12.1217 19.1571 14.1566 17.6569 15.6569C16.1566 17.1571 14.1217 18 12 18Z" fill="#CAD5E2"/>
</g>
</g>
</g>
</g>
<defs>
<clipPath id="clip0_42_262">
<rect width="24" height="24" fill="white"/>
</clipPath>
</defs>
</svg>
