<svg width="24" height="24" viewBox="0 0 24 24" fill="none" xmlns="http://www.w3.org/2000/svg">
<rect width="24" height="24" fill="#E5E5E5"/>
<g id="components">
<rect width="2078" height="3798" transform="translate(-1115 -1032)" fill="#020618"/>
<g id="about menu icons">
<rect x="-19.5" y="-195.5" width="63" height="283" rx="4.5" stroke="#9747FF" stroke-dasharray="10 5"/>
<g id="type=professional info, state=static">
<g id="icon personal info" clip-path="url(#clip0_42_262)">
<path id="Vector" d="M3 3H21C21.2652 3 21.5196 3.10536 21.7071 3.29289C21.8946 3.48043 22 3.73478 22 4V20C22 20.2652 21.8946 20.5196 21.7071 20.7071C21.5196 20.8946 21.2652 21 21 21H3C2.73478 21 2.48043 20.8946 2.29289 20.7071C2.10536 20.5196 2 20.2652 2 20V4C2 3.73478 2.10536 3.48043 2.29289 3.29289C2.48043 3.10536 2.73478 3 3 3ZM12 15V17H18V15H12ZM8.414 12L5.586 14.828L7 16.243L11.243 12L7 7.757L5.586 9.172L8.414 12Z" fill="#62748E"/>
</g>
</g>
</g>
</g>
<defs>
<clipPath id="clip0_42_262">
<rect width="24" height="24" fill="white"/>
</clipPath>
</defs>
</svg>
