<svg width="340" height="428" viewBox="0 0 340 428" fill="none" xmlns="http://www.w3.org/2000/svg">
<path d="M11.3451 143.095V58.0645H61.1127V97.4691H171.038C171.038 97.4691 239.47 93.3212 285.097 141.022C330.723 188.722 349.653 247.898 328.649 313.158C306.166 383.01 241.544 423.004 179.326 425.15C117.108 427.295 55.8288 396.268 25.8563 333.897C13.6033 308.399 9.6318 289.596 9.26485 261.309C8.64605 213.609 32.0863 174.204 32.0863 174.204H127.487L98.452 219.831H61.1213C61.1213 219.831 56.4668 219.831 52.8167 265.457C49.1666 311.084 98.4431 379.523 171.031 379.523C243.618 379.523 293.393 329.749 293.393 257.162C293.393 184.574 220.812 143.095 187.629 143.095H11.3451Z" fill="#B96400" stroke="#B96400" stroke-width="4.14786"/>
<path d="M252.619 233.137H253.422L253.343 232.338C252.299 221.664 249.599 212.156 245.231 203.828C240.869 195.511 235.194 188.495 228.206 182.788C221.214 177.02 214.814 173.477 204.224 173.474C197.827 173.473 191.559 173.474 185.181 173.474C181.22 173.475 177.218 173.475 173.115 173.475C167.866 173.475 161.378 173.476 154.486 173.477C140.736 173.478 125.378 173.479 115.045 173.476L114.857 173.476L114.692 173.568C111.412 175.387 109.332 177.582 107.96 180.082C106.597 182.566 105.955 185.311 105.489 188.183C105.315 189.258 105.164 190.35 105.011 191.46C104.34 196.333 103.623 201.531 100.662 206.925C93.1616 220.588 89.4303 237.212 89.4303 256.765C89.4303 276.259 93.1035 292.853 100.487 306.515C107.86 320.159 117.917 330.569 130.654 337.724L130.658 337.725C143.444 344.816 157.905 348.354 174.023 348.354C186.245 348.354 197.105 346.5 206.59 342.776C216.11 339.061 224.196 334.062 230.836 327.771L230.839 327.769C237.46 321.438 242.665 314.432 246.448 306.75C250.285 299.077 252.586 291.276 253.344 283.35L253.419 282.558L252.623 282.553L209.439 282.294L208.824 282.29L208.717 282.896C207.982 287.082 206.656 290.829 204.744 294.145L204.742 294.149C202.889 297.407 200.504 300.185 197.584 302.487C194.724 304.73 191.38 306.447 187.541 307.632L187.538 307.633C183.761 308.817 179.546 309.414 174.887 309.414C166.601 309.414 159.46 307.458 153.434 303.573C147.47 299.634 142.804 293.797 139.454 286.019C136.164 278.189 134.502 268.446 134.502 256.765C134.502 245.548 136.134 236.033 139.369 228.198C142.663 220.362 147.331 214.408 153.358 210.296C159.439 206.186 166.691 204.117 175.146 204.117C179.913 204.117 184.236 204.798 188.121 206.149L188.121 206.149L188.133 206.153C192.081 207.45 195.478 209.334 198.335 211.8C201.197 214.268 203.499 217.243 205.242 220.729C206.987 224.218 208.146 228.14 208.713 232.503L208.795 233.137H209.434H252.619Z" fill="#B96400" stroke="#B96400" stroke-width="1.45564"/>
<circle cx="36.2148" cy="35.2568" r="22.8445" stroke="#B96400" stroke-width="24.8245"/>
</svg>
